<?xml version="1.0" encoding="utf-8"?>
<svg xmlns="http://www.w3.org/2000/svg" viewBox="0 0 100 100" width="100px" height="100px" xmlns:bx="https://boxy-svg.com">
  <path d="M 22.418 37.29 Q 26.071 32.924 33.199 32.924 Q 45.316 32.924 45.316 47.804 L 45.316 69.277 L 36.763 69.277 L 36.763 50.655 Q 36.763 39.518 29.902 39.518 Q 22.418 39.518 22.418 51.457 L 22.418 69.277 L 13.775 69.277 L 13.775 34.082 L 22.418 34.082 Z M 86.034 66.248 Q 86.034 84.335 69.194 84.335 Q 61.71 84.335 56.542 80.281 Q 51.374 76.227 51.374 69.723 L 60.552 69.723 Q 60.552 72.306 63.136 74.801 Q 65.72 77.296 68.927 77.296 Q 77.392 77.296 77.392 67.139 L 77.392 64.911 Q 73.739 69.544 66.299 69.544 Q 58.859 69.544 54.627 64.377 Q 50.394 59.209 50.394 51.724 Q 50.394 43.616 54.938 38.181 Q 59.483 32.746 66.744 32.746 Q 74.006 32.746 77.392 37.29 L 77.392 33.904 L 86.034 33.904 Z M 78.639 50.922 Q 78.639 50.922 78.639 48.517 Q 78.639 46.111 75.966 43.171 Q 73.293 40.23 68.927 40.23 Q 64.561 40.23 61.844 43.438 Q 59.126 46.646 59.126 51.546 Q 59.126 62.06 68.927 62.06 Q 73.382 62.06 76.011 58.897 Q 78.639 55.734 78.639 50.922 Z" style="fill: rgb(2, 28, 54); text-wrap-mode: nowrap;"/>
  <path d="M 11.438 0 H 88.562 A 11.438 11.438 0 0 1 100 11.438 V 88.562 A 11.438 11.438 0 0 1 88.562 100 H 11.438 A 11.438 11.438 0 0 1 0 88.562 V 11.438 A 11.438 11.438 0 0 1 11.438 0 Z M 9 15.938 V 84.062 A 6.938 6.938 0 0 0 15.938 91 H 84.062 A 6.938 6.938 0 0 0 91 84.062 V 15.938 A 6.938 6.938 0 0 0 84.062 9 H 15.938 A 6.938 6.938 0 0 0 9 15.938 Z" bx:shape="frame 0 0 100 100 9 9 11.438 11.438 11.438 11.438 1@4563f360" style="fill: rgb(2, 28, 54);"/>
  <ellipse style="fill: rgb(2, 28, 54);" cx="75.02" cy="22.02" rx="7.02" ry="7.02"/>
</svg>
